<svg width="2500" height="2185" viewBox="0 0 2500 2185" fill="none" xmlns="http://www.w3.org/2000/svg">
<g clip-path="url(#clip0_134_17)">
<path d="M2226.43 474.405C2279.26 474.405 2322.09 517.231 2322.09 570.06V2032.42C2322.09 2085.25 2279.26 2128.07 2226.43 2128.07H212.24C159.412 2128.07 116.586 2085.25 116.586 2032.42V570.06C116.586 517.231 159.412 474.405 212.24 474.405H2226.43Z" fill="white" stroke="white" stroke-width="18"/>
<path d="M2324.39 2008.37C2324.2 2076.34 2269.15 2131.39 2201.18 2131.57H1198.17L1194.48 2127.75L117.813 1012.03L114.309 1008.4V1003.35C114.309 971.912 126.28 838.082 145.765 712.481C155.519 649.605 167.248 588.164 180.478 542.253C187.065 519.393 194.213 499.701 202.001 485.483C205.884 478.395 210.259 472.039 215.294 467.312C220.345 462.569 227.009 458.617 235.103 458.617H2201.18C2269.14 458.802 2324.19 513.838 2324.39 581.794V2008.37Z" fill="url(#paint0_linear_134_17)" stroke="white" stroke-width="25"/>
<path d="M625.07 757.324H1250.07V-62.9766H718.656L625.07 757.324Z" fill="white"/>
<path d="M1875.07 757.324H1250.07V-62.9766H1781.48L1875.07 757.324ZM2313.09 92.5216L2313.86 95.3176C2313.67 94.3308 2313.3 93.4144 2313.09 92.5216Z" fill="white"/>
<path d="M2313.86 95.2942L2313.09 92.4981C2293.27 1.76269 2212.96 -62.9413 2120.09 -63H1781.48L1875 757.324H2500L2313.86 95.2942Z" fill="white"/>
<path d="M187.053 92.5215L186.277 95.3175C186.465 94.3307 186.841 93.4143 187.053 92.5215Z" fill="white"/>
<path d="M186.255 95.2942L187.03 92.4981C206.844 1.76269 287.155 -62.9413 380.028 -63H718.656L625 757.324H0L186.255 95.2942Z" fill="white"/>
<path fill-rule="evenodd" clip-rule="evenodd" d="M626.128 743.113C626.128 915.603 486.295 1055.44 313.804 1055.44C141.314 1055.44 1.48047 915.603 1.48047 743.113H626.128Z" fill="white"/>
<path fill-rule="evenodd" clip-rule="evenodd" d="M1250.78 743.113C1250.78 915.603 1110.94 1055.44 938.453 1055.44C765.962 1055.44 626.129 915.603 626.129 743.113H1250.78Z" fill="white"/>
<path fill-rule="evenodd" clip-rule="evenodd" d="M1875.42 743.113C1875.42 915.603 1735.59 1055.44 1563.1 1055.44C1390.61 1055.44 1250.78 915.603 1250.78 743.113H1875.42Z" fill="white"/>
<path fill-rule="evenodd" clip-rule="evenodd" d="M2500 743.113C2500 915.603 2360.17 1055.44 2187.68 1055.44C2015.18 1055.44 1875.35 915.603 1875.35 743.113H2500Z" fill="white"/>
<path d="M2187.69 1589.28C2186.58 1574.41 2184.75 1560.83 2182.14 1543.49H1841.45C1841.45 1591.14 1841.45 1643.14 1841.26 1690.81H2038.63C2034.43 1713.03 2025.89 1734.2 2013.49 1753.11C2001.09 1772.01 1985.08 1788.28 1966.38 1800.98C1966.38 1800.98 1966.38 1800.16 1966.23 1800.14C1942.08 1816 1914.86 1826.62 1886.35 1831.32C1857.76 1836.55 1828.45 1836.42 1799.9 1830.94C1770.92 1824.94 1743.48 1813.05 1719.29 1796C1683.58 1770.68 1656.03 1735.48 1640.04 1694.73C1638.81 1691.56 1637.69 1688.37 1636.54 1685.12V1684.77L1636.84 1684.54C1621.31 1638.96 1621.27 1589.54 1636.72 1543.93C1647.61 1511.95 1665.52 1482.8 1689.14 1458.64C1744.56 1401.32 1827.37 1379.75 1903.71 1402.77C1932.98 1411.75 1959.73 1427.49 1981.79 1448.73L2048.38 1382.14C2060.13 1370.27 2072.32 1358.78 2083.62 1346.52C2049.86 1315.03 2010.23 1290.48 1966.99 1274.29C1888.29 1245.76 1802.21 1245 1723.03 1272.15C1720.27 1273.09 1717.53 1274.07 1714.8 1275.09C1629.38 1307.21 1559.1 1370.19 1517.86 1451.59C1503.29 1480.41 1492.68 1511.06 1486.32 1542.71C1448.61 1730.15 1562.98 1914.64 1747.63 1964.24C1807.99 1980.4 1872.16 1980 1932.99 1966.19C1988.26 1953.71 2039.36 1927.15 2081.34 1889.09C2125.14 1848.8 2156.53 1795.11 2172.98 1738.08C2186.73 1689.76 2191.71 1639.36 2187.69 1589.28Z" fill="white"/>
</g>
<defs>
<linearGradient id="paint0_linear_134_17" x1="126.809" y1="765676" x2="2.32503e+06" y2="765676" gradientUnits="userSpaceOnUse">
<stop stop-color="#091734"/>
<stop offset="1" stop-color="white"/>
</linearGradient>
<clipPath id="clip0_134_17">
<rect width="2500" height="2185" fill="white"/>
</clipPath>
</defs>
</svg>
